<?xml version="1.0" standalone="no"?><!DOCTYPE svg PUBLIC "-//W3C//DTD SVG 1.1//EN" "http://www.w3.org/Graphics/SVG/1.1/DTD/svg11.dtd"><svg t="1783874373555" class="icon" viewBox="0 0 1024 1024" version="1.1" xmlns="http://www.w3.org/2000/svg" p-id="21323" xmlns:xlink="http://www.w3.org/1999/xlink" width="128" height="128"><path d="M512 1024c-281.6 0-512-230.4-512-512s230.4-512 512-512 512 230.4 512 512S793.6 1024 512 1024zM512 64C262.4 64 64 262.4 64 512s198.4 448 448 448 448-198.4 448-448S761.6 64 512 64z" fill="#6d3be6" p-id="21324"></path><path d="M512 633.6c-19.2 0-32-12.8-32-32L480 268.8C480 256 492.8 243.2 512 243.2S544 256 544 268.8l0 332.8C544 620.8 531.2 633.6 512 633.6z" fill="#6d3be6" p-id="21325"></path><path d="M512 755.2m-51.2 0a0.8 0.8 0 1 0 102.4 0 0.8 0.8 0 1 0-102.4 0Z" fill="#6d3be6" p-id="21326"></path></svg>