<?xml version="1.0" standalone="no"?><!DOCTYPE svg PUBLIC "-//W3C//DTD SVG 1.1//EN" "http://www.w3.org/Graphics/SVG/1.1/DTD/svg11.dtd"><svg t="1783874573100" class="icon" viewBox="0 0 1024 1024" version="1.1" xmlns="http://www.w3.org/2000/svg" p-id="22481" xmlns:xlink="http://www.w3.org/1999/xlink" width="128" height="128"><path d="M751.724 561.645c-107.505 0-194.661 87.16-194.661 194.661 0 107.5 87.156 194.671 194.661 194.671s194.661-87.171 194.661-194.671c-0.01-107.501-87.156-194.661-194.661-194.661z m39.794 128.648l18.009-18.009c5.998-8.001 18.009-8.001 26.01 0 8.015 6.003 8.015 18.009 0 26.019l-17.999 17.99c-5.999 8.02-18.005 8.02-26.02 0-7.987-6.003-7.987-18 0-26zM631.48 762.318v-12.006c0-8.001 5.988-12.006 12.001-12.006h40.022c5.993 0 11.996 5.993 11.996 12.006v12.006c0 8.01-5.993 12.005-14.004 12.005h-38.02c-6.006 0-11.995-6.011-11.995-12.005z m80.031 60.01l-18.009 18.018c-5.998 8.001-18.004 8.001-26.009 0-7.996-6.003-7.996-18.018 0-26.019l18.004-18.009c5.998-8.001 17.999-8.001 26.014 0 7.991 6.013 7.991 18.009 0 26.01z m0-106.035c-8.015 8.01-20.002 8.01-26.014 0l-18.004-18c-7.996-6.003-7.996-17.999 0-26.009 5.998-8.011 18.004-8.011 26.019 0l17.999 17.999c7.991 6.013 7.991 18.009 0 26.01z m58.016 148.055c0 6.003-6.007 11.996-12.01 11.996h-12.001c-5.999 0-12.011-5.993-12.011-11.996v-38.015c0-6.003 6.003-12.006 12.011-12.006h12.001c8.01 0 12.01 4.005 12.01 12.006v38.015z m0-178.061c0 5.994-6.007 12.006-12.01 12.006h-12.001c-5.999 0-12.011-6.003-12.011-12.006v-38.015c0-6.003 3.995-12.006 12.011-12.006h12.001c8.01 0 12.01 5.993 12.01 12.006v38.015z m66.018 154.059c-5.993 8.001-18.004 8.001-26.009 0l-18.009-18.018c-7.996-5.994-7.996-18 0-26.01 6.008-8.001 18.009-8.001 26.014 0l18.004 18.009c8.006 6.003 8.006 18.009 0 26.019z m36.013-78.028c0 5.993-5.998 12.005-12.006 12.005h-38.02c-5.998 0-12.006-6.003-12.006-12.005v-12.006c0-6.003 5.998-12.006 12.006-12.006h38.02c5.998 0 12.006 4.005 12.006 12.006v12.006zM269.047 233.19c22.813 0 41.307-17.88 41.307-39.927v-79.859c0-22.062-18.494-39.937-41.307-39.937s-41.297 17.875-41.297 39.937v79.859c0 22.052 18.484 39.927 41.297 39.927zM682.115 233.19c22.813 0 41.297-17.88 41.297-39.927v-79.859c0-22.062-18.494-39.937-41.297-39.937-22.818 0-41.308 17.875-41.308 39.937v79.859c-0.003 22.052 18.49 39.927 41.308 39.927zM475.581 233.19c22.808 0 41.297-17.88 41.297-39.927v-79.859c0-22.062-18.494-39.937-41.297-39.937-22.813 0-41.297 17.875-41.297 39.937v79.859c-0.01 22.052 18.475 39.927 41.297 39.927z" fill="#f58b00" p-id="22482"></path><path d="M528.685 792.199H220.862c-19.017 0-34.424-14.907-34.424-33.277s15.407-33.269 34.424-33.269h307.085c4.59-34.028 16.729-65.66 34.686-93.173H227.75c-22.822 0-41.312-17.876-41.312-39.918 0-22.062 18.489-39.937 41.312-39.937H652.8c30.114-14.774 63.948-23.108 99.751-23.108 45.064 0 87.019 13.205 122.313 35.875V193.263c0-22.052-18.484-39.937-41.297-39.937H764.71v39.937c0 44.108-36.987 79.864-82.613 79.864s-82.613-35.751-82.613-79.864v-39.937h-41.298v39.937c0 44.108-36.978 79.864-82.608 79.864-45.621 0-82.608-35.751-82.608-79.864v-39.937h-41.307v39.937c0 44.108-36.983 79.864-82.608 79.864-45.621 0-82.609-35.751-82.609-79.864v-39.937h-68.857c-22.822 0-41.307 17.875-41.307 39.937v692.109c0 22.043 18.494 39.918 41.307 39.918h483.913c-37.976-33.953-64.432-80.511-72.817-133.091zM227.75 379.591h495.667c22.817 0 41.302 17.885 41.302 39.937s-18.494 39.927-41.302 39.927H227.75c-22.822 0-41.312-17.875-41.312-39.927s18.49-39.937 41.312-39.937z" fill="#f58b00" p-id="22483"></path></svg>